<?xml version="1.0" encoding="UTF-8" standalone="no"?>
<!-- Generator: Adobe Illustrator 24.0.3, SVG Export Plug-In . SVG Version: 6.00 Build 0)  -->

<svg
   version="1.1"
   id="レイヤー_1"
   x="0px"
   y="0px"
   viewBox="0 0 148.8 170.6"
   xml:space="preserve"
   sodipodi:docname="noimage.svg"
   width="148.8"
   height="170.60001"
   inkscape:version="1.2.1 (9c6d41e410, 2022-07-14)"
   xmlns:inkscape="http://www.inkscape.org/namespaces/inkscape"
   xmlns:sodipodi="http://sodipodi.sourceforge.net/DTD/sodipodi-0.dtd"
   xmlns="http://www.w3.org/2000/svg"
   xmlns:svg="http://www.w3.org/2000/svg"><defs
   id="defs4386" /><sodipodi:namedview
   id="namedview4384"
   pagecolor="#ffffff"
   bordercolor="#000000"
   borderopacity="0.25"
   inkscape:showpageshadow="2"
   inkscape:pageopacity="0.0"
   inkscape:pagecheckerboard="0"
   inkscape:deskcolor="#d1d1d1"
   showgrid="false"
   inkscape:zoom="2.2210542"
   inkscape:cx="127.41697"
   inkscape:cy="122.46437"
   inkscape:window-width="1920"
   inkscape:window-height="1174"
   inkscape:window-x="-11"
   inkscape:window-y="-11"
   inkscape:window-maximized="1"
   inkscape:current-layer="レイヤー_1" />
<style
   type="text/css"
   id="style4351">
	.st0{fill:none;stroke:#000000;stroke-width:5;stroke-linecap:round;stroke-linejoin:round;}
</style>
<g
   id="g4367"
   transform="translate(-538.4,-970.7)">
	<path
   d="m 551,1141.2 -9.5,-14.5 v 14.5 h -3.1 v -20.7 h 2.9 l 9.5,14.5 v -14.5 h 3.1 v 20.7 z"
   id="path4353" />
	<path
   d="m 574.3,1139.1 c -1.4,1.4 -3.2,2.2 -5.5,2.2 -2.2,0 -4,-0.8 -5.4,-2.2 -2,-2 -2,-4.3 -2,-8.3 0,-4 0,-6.3 2,-8.3 1.4,-1.4 3.2,-2.2 5.4,-2.2 2.2,0 4,0.8 5.5,2.2 2,2 2,4.3 2,8.3 0,4 0,6.3 -2,8.3 z m -2.4,-14.7 c -0.7,-0.8 -1.9,-1.3 -3.1,-1.3 -1.2,0 -2.3,0.5 -3.1,1.3 -1,1.1 -1.2,2.3 -1.2,6.4 0,4.1 0.2,5.3 1.2,6.4 0.7,0.8 1.9,1.3 3.1,1.3 1.2,0 2.3,-0.5 3.1,-1.3 1,-1.1 1.2,-2.3 1.2,-6.4 0,-4.1 -0.2,-5.3 -1.2,-6.4 z"
   id="path4355" />
	<path
   d="m 593.6,1141.2 v -20.7 h 3.1 v 20.7 z"
   id="path4357" />
	<path
   d="m 620.2,1141.2 v -13.8 l -4.8,10.1 h -2.3 l -4.9,-10.1 v 13.8 h -3.1 v -20.7 h 3.1 l 6,12.9 5.9,-12.9 h 3.1 v 20.7 z"
   id="path4359" />
	<path
   d="m 643.4,1141.2 -1.4,-4.1 h -8.2 l -1.4,4.1 h -3.3 l 7.6,-20.7 h 2.5 l 7.6,20.7 z m -5.4,-16 -3.2,9.2 h 6.4 z"
   id="path4361" />
	<path
   d="m 664.6,1139 c -1.6,1.7 -3.5,2.3 -5.7,2.3 -2.1,0 -4,-0.8 -5.4,-2.2 -2,-2 -2,-4.3 -2,-8.3 0,-4 0,-6.3 2,-8.3 1.4,-1.4 3.2,-2.2 5.4,-2.2 4.4,0 6.9,2.9 7.5,6.4 h -3.2 c -0.5,-2.3 -2,-3.6 -4.4,-3.6 -1.2,0 -2.3,0.5 -3,1.3 -1,1.1 -1.2,2.3 -1.2,6.4 0,4.1 0.2,5.3 1.2,6.4 0.7,0.8 1.8,1.2 3,1.2 1.4,0 2.6,-0.5 3.4,-1.5 0.8,-0.9 1,-1.9 1,-3.2 v -1.2 H 659 v -2.7 h 7.5 v 3.2 c 0,2.8 -0.5,4.5 -1.9,6 z"
   id="path4363" />
	<path
   d="m 674,1141.2 v -20.7 h 13.2 v 2.8 h -10.1 v 6 h 8.6 v 2.8 h -8.6 v 6.2 h 10.1 v 2.8 H 674 Z"
   id="path4365" />
</g>
<line
   class="st0"
   x1="131.50003"
   y1="7.5000124"
   x2="11.500025"
   y2="127.49995"
   id="line4369" />
<path
   class="st0"
   d="m 23.5,114.1 c -7.1,0 -12.9,-5.8 -12.9,-12.9 V 36 c 0,-7.1 5.8,-12.9 12.9,-12.9 h 92.2"
   id="path4371" />
<path
   class="st0"
   d="m 127.8,23 c 7.1,0 12.9,5.8 12.9,12.9 v 65.2 c 0,7.1 -5.8,12.9 -12.9,12.9 H 39.3"
   id="path4373" />
<path
   class="st0"
   d="M 42,21.4 54.3,7.7 c 2,-2.9 5.4,-5.2 9.3,-5.2 h 25.2 c 3.9,0 7.3,2.3 9.3,5.2 l 10.2,13.7"
   id="path4375" />
<circle
   cx="120.89999"
   cy="42.599987"
   r="5"
   id="circle4377" />
<path
   class="st0"
   d="m 99.7,54.5 c 2.7,4.2 4.3,9.1 4.5,14.4 0.4,15.6 -11.8,28.5 -27.4,29 -6.4,0.2 -12.4,-1.8 -17.2,-5.3"
   id="path4379" />
<path
   class="st0"
   d="M 52.5,86.4 C 49,81.7 47,75.9 47,69.6 47,54 59.6,41.4 75.2,41.4 c 5.6,0 10.8,1.6 15.2,4.4"
   id="path4381" />
</svg>
