<?xml version="1.0" encoding="UTF-8" standalone="no"?>
<!-- Created with Inkscape (http://www.inkscape.org/) -->

<svg
   width="48"
   height="48"
   viewBox="0 0 48 48"
   version="1.1"
   id="svg5"
   sodipodi:docname="c-m-blk.svg"
   inkscape:version="1.2.1 (9c6d41e410, 2022-07-14)"
   inkscape:export-filename="c-m-blk_180x180.png"
   inkscape:export-xdpi="360"
   inkscape:export-ydpi="360"
   xmlns:inkscape="http://www.inkscape.org/namespaces/inkscape"
   xmlns:sodipodi="http://sodipodi.sourceforge.net/DTD/sodipodi-0.dtd"
   xmlns="http://www.w3.org/2000/svg"
   xmlns:svg="http://www.w3.org/2000/svg">
  <sodipodi:namedview
     id="namedview7"
     pagecolor="#ffffff"
     bordercolor="#000000"
     borderopacity="0.25"
     inkscape:showpageshadow="2"
     inkscape:pageopacity="0.0"
     inkscape:pagecheckerboard="0"
     inkscape:deskcolor="#d1d1d1"
     inkscape:document-units="px"
     showgrid="true"
     inkscape:zoom="24.424646"
     inkscape:cx="22.231643"
     inkscape:cy="13.142463"
     inkscape:window-width="1920"
     inkscape:window-height="1009"
     inkscape:window-x="-8"
     inkscape:window-y="-8"
     inkscape:window-maximized="1"
     inkscape:current-layer="layer1">
    <inkscape:grid
       type="xygrid"
       id="grid293" />
  </sodipodi:namedview>
  <defs
     id="defs2" />
  <g
     inkscape:label="Layer 1"
     inkscape:groupmode="layer"
     id="layer1">
    <rect
       style="font-size:10.6667px;font-family:'Product Sans Light';-inkscape-font-specification:'Product Sans Light, Normal';fill:#000000;fill-opacity:1;stroke-width:2.83465;stroke-linejoin:bevel;paint-order:stroke markers fill"
       id="rect4180"
       width="48"
       height="48"
       x="-0.46320868"
       y="-0.83956575"
       transform="translate(0.46320869,0.83956574)"
       ry="24" />
  </g>
  <g
     inkscape:groupmode="layer"
     id="layer2"
     inkscape:label="Layer 2"
     style="stroke:none;stroke-width:1.5;stroke-linejoin:miter;stroke-dasharray:none;stroke-opacity:1"
     transform="matrix(0.81229424,0,0,0.81229424,4.5049382,4.5049382)">
    <path
       d="m 16.24619,41.046218 q -0.393462,0 -0.661729,-0.268268 -0.268268,-0.268267 -0.268268,-0.661725 0,-0.393462 0.268268,-0.643846 0.268267,-0.268268 0.661729,-0.268268 0.393458,0 0.643842,0.268268 0.268268,0.250394 0.268268,0.643846 0,0.393461 -0.268268,0.661725 -0.250394,0.268268 -0.643842,0.268268 z"
       id="path1886"
       style="stroke:none;stroke-width:1.5;stroke-linejoin:miter;stroke-dasharray:none;stroke-opacity:1;font-size:10.6667px;font-family:'Product Sans Light';-inkscape-font-specification:'Product Sans Light, Normal';paint-order:stroke markers fill;fill:#ffffff;fill-opacity:1"
       transform="matrix(0.70413135,0,0,0.70413135,7.427008,7.6920129)" />
    <path
       style="stroke:none;stroke-width:1.5;stroke-linejoin:miter;stroke-dasharray:none;stroke-opacity:1;font-size:10.6667px;font-family:'Product Sans Light';-inkscape-font-specification:'Product Sans Light, Normal';paint-order:stroke markers fill;fill:#ffffff;fill-opacity:1"
       d="m 19.30972,15.435516 h 2.253458 l 9.693433,16.918803 h 0.143087 L 41.057365,15.435516 H 43.31082 V 41.046218 H 41.057365 V 19.692043 L 31.971994,35.609308 H 30.648536 L 21.563178,19.692043 V 41.046218 H 19.30972 Z"
       transform="matrix(0.70413135,0,0,0.70413135,7.427008,7.6920129)"
       id="path1888" />
    <path
       d="m 26.869623,27.379976 q -1.71692,2.074611 -4.220759,3.362299 -2.468069,1.287688 -5.758832,1.287688 -2.82576,0 -5.222293,-1.037304 -2.3965323,-1.037307 -4.1492193,-2.825764 -1.7526858,-1.824223 -2.7542228,-4.256526 -1.001534,-2.468066 -1.001534,-5.258062 0,-2.789994 1.001534,-5.222293 1.001537,-2.468071 2.7542228,-4.256527 1.752687,-1.8242259 4.1492193,-2.8615311 2.396533,-1.0373049 5.222293,-1.0373049 2.968838,0 5.258063,1.1088432 2.289226,1.0730743 4.006146,3.0761459 L 24.508858,11.033481 Q 21.57579,7.4565685 16.890032,7.4565685 q -2.217685,0 -4.184989,0.8226901 -1.9673,0.8226901 -3.4338363,2.2892244 -1.466535,1.466536 -2.324992,3.541143 -0.858457,2.038842 -0.858457,4.542681 0,2.503842 0.858457,4.57845 0.85846,2.038841 2.324992,3.541143 1.4665363,1.466535 3.4338363,2.289225 1.967304,0.78692 4.184993,0.78692 2.682686,0 4.721524,-1.073074 2.038841,-1.073074 3.61268,-2.968838 z"
       id="path1884"
       style="stroke:#000000;stroke-width:1.5;stroke-linejoin:miter;stroke-dasharray:none;stroke-opacity:1;font-size:10.6667px;font-family:'Product Sans Light';-inkscape-font-specification:'Product Sans Light, Normal';paint-order:stroke markers fill;fill:#ffffff;fill-opacity:1"
       transform="matrix(0.70413135,0,0,0.70413135,7.427008,7.6920129)" />
    <path
       style="font-size:10.6667px;font-family:'Product Sans Light';-inkscape-font-specification:'Product Sans Light, Normal';fill:#ffffff;fill-opacity:1;stroke:#000000;stroke-width:1.5;stroke-linejoin:miter;stroke-dasharray:none;stroke-opacity:1;paint-order:stroke markers fill"
       d="m 21.563178,15.435516 3.081267,5.378006 6.612166,11.540797 h 0.143087 L 41.057365,15.435516 H 43.31082 V 41.046218 H 41.057365 V 19.692043 L 31.971994,35.609308 H 30.648536 L 21.563178,19.692043 Z"
       transform="matrix(0.70413135,0,0,0.70413135,7.427008,7.6920129)"
       id="path2138"
       sodipodi:nodetypes="ccccccccccccc" />
    <path
       style="font-size:10.6667px;font-family:'Product Sans Light';-inkscape-font-specification:'Product Sans Light, Normal';fill:#ffffff;fill-opacity:1;stroke:none;stroke-width:1.5;stroke-linejoin:miter;stroke-dasharray:none;stroke-opacity:1;paint-order:stroke markers fill"
       d="m 19.30972,15.435516 h 2.253458 l 9.693433,16.918803 h 0.143087 L 41.057365,15.435516 H 43.31082 V 41.046218 H 41.057365 V 19.692043 l -9.085371,15.917265 h -1.323458 l -9.085358,-15.917265 0,5.216759 H 19.30972 Z"
       transform="matrix(0.70413135,0,0,0.70413135,7.427008,7.6920129)"
       id="path2159"
       sodipodi:nodetypes="ccccccccccccccc" />
  </g>
</svg>
